<svg width="16" height="16" viewBox="0 0 16 16" fill="none" xmlns="http://www.w3.org/2000/svg">
<g clip-path="url(#clip0_296_364)">
<path d="M15.4237 5.12537C15.5094 5.18628 15.5771 5.2666 15.6222 5.3584L12.6875 7.99963V3.24963L15.4237 5.12537Z" fill="#FFB64C"/>
<path d="M12.6875 7.97937C12.6842 7.98242 8.86304 11.3948 8.84595 11.41C8.36755 11.8494 7.63245 11.8494 7.15405 11.41C6.77197 11.0688 3.67725 8.30481 3.30713 7.97437L3.3125 7.96838C3.3125 7.33008 3.3125 2.89917 3.3125 2.18713H12.6875V7.97937Z" fill="#EDE9E8"/>
<path d="M11.0875 2.18689V2.18713H4.91223V2.18689L7.27747 0.542236C7.71033 0.235596 8.28967 0.235596 8.72253 0.542236L11.0875 2.18689Z" fill="#FFB64C"/>
<path d="M15.6222 5.3584C15.4769 5.48816 14.2469 6.58679 8.84595 11.41C8.36755 11.8494 7.63245 11.8494 7.15405 11.41C6.89343 11.1772 0.64856 5.60022 0.377808 5.3584C0.335327 5.44312 0.3125 5.53784 0.3125 5.63525V15.0621C0.3125 15.4092 0.594482 15.6871 0.9375 15.6871H15.0625C15.4054 15.6871 15.6875 15.4093 15.6875 15.0621V5.63525C15.6875 5.53784 15.6647 5.44312 15.6222 5.3584Z" fill="#FFDF8E"/>
<path d="M0.576294 5.12537C0.490601 5.18628 0.422852 5.2666 0.377808 5.3584L3.3125 7.96838V3.24963L0.576294 5.12537Z" fill="#FFB64C"/>
<path d="M5.5 14.1246C5.32751 14.1246 5.1875 14.2646 5.1875 14.4371C5.1875 14.6097 5.32751 14.7496 5.5 14.7496C5.67249 14.7496 5.8125 14.6097 5.8125 14.4371C5.8125 14.2646 5.67249 14.1246 5.5 14.1246Z" fill="black"/>
<path d="M15.605 4.87094C15.6035 4.86984 15.6019 4.86887 15.6005 4.86777L13 3.0853V2.18735C13 2.01486 12.8601 1.87485 12.6875 1.87485H11.1859L8.90308 0.287445C8.36292 -0.095245 7.63708 -0.0952451 7.09912 0.285858L4.81372 1.87485H3.3125C3.13989 1.87485 3 2.01486 3 2.18735V3.0853L0.399536 4.86777C0.398071 4.86874 0.396484 4.86984 0.39502 4.87094C0.143555 5.0499 0 5.33994 0 5.63547V15.0623C0 15.5695 0.410156 15.9998 0.9375 15.9998H15.0625C15.5902 15.9998 16 15.5692 16 15.0623V5.63547C16 5.32761 15.8463 5.04269 15.605 4.87094ZM15.375 15.0255L10.1625 10.6534L15.375 5.99838V15.0255ZM0.625 5.99838L5.83752 10.6534L0.625 15.0255V5.99838ZM6.30859 11.0741L6.94446 11.6419C7.2334 11.9066 7.60815 12.0522 8 12.0522C8.39185 12.0522 8.7666 11.9066 9.05554 11.6419L9.69141 11.0741L14.8191 15.3748H1.18091L6.30859 11.0741ZM15.1782 5.33615L13 7.28146V3.84299L15.1782 5.33615ZM7.45813 0.797455C7.78223 0.567841 8.21777 0.567719 8.54407 0.79892L10.0912 1.87485H5.90857L7.45813 0.797455ZM12.375 2.49985V7.83957L8.63782 11.1771C8.63672 11.1781 8.63562 11.179 8.63452 11.18C8.27283 11.5123 7.72717 11.5123 7.36548 11.18C7.36438 11.179 7.3634 11.1781 7.3623 11.1771L3.625 7.83957C3.625 6.61081 3.625 3.63974 3.625 2.49985H12.375ZM3 7.28146L0.821777 5.33615L3 3.84299V7.28146Z" fill="black"/>
<path d="M10.5 14.1246H6.75C6.57739 14.1246 6.4375 14.2646 6.4375 14.4371C6.4375 14.6097 6.57739 14.7496 6.75 14.7496H10.5C10.6726 14.7496 10.8125 14.6097 10.8125 14.4371C10.8125 14.2646 10.6726 14.1246 10.5 14.1246Z" fill="black"/>
<path d="M8 9.37463C8.17261 9.37463 8.3125 9.23474 8.3125 9.06213C8.3125 8.88965 8.17261 8.74963 8 8.74963C6.79382 8.74963 5.8125 7.76843 5.8125 6.56213C5.8125 5.35596 6.79382 4.37463 8 4.37463C9.20618 4.37463 10.1875 5.35596 10.1875 6.56213V7.18713C10.1875 7.3595 10.0474 7.49963 9.875 7.49963C9.70264 7.49963 9.5625 7.3595 9.5625 7.18713V6.56213C9.5625 5.70068 8.86157 4.99963 8 4.99963C7.13843 4.99963 6.4375 5.70068 6.4375 6.56213C6.4375 7.42371 7.13843 8.12463 8 8.12463C8.42004 8.12463 8.80151 7.95776 9.08264 7.68726C9.2489 7.94983 9.54187 8.12463 9.875 8.12463C10.392 8.12463 10.8125 7.7041 10.8125 7.18713V6.56213C10.8125 5.01135 9.55078 3.74963 8 3.74963C6.44922 3.74963 5.1875 5.01135 5.1875 6.56213C5.1875 8.11304 6.44922 9.37463 8 9.37463ZM8 7.49963C7.48303 7.49963 7.0625 7.0791 7.0625 6.56213C7.0625 6.04529 7.48303 5.62463 8 5.62463C8.51697 5.62463 8.9375 6.04529 8.9375 6.56213C8.9375 7.0791 8.51697 7.49963 8 7.49963Z" fill="black"/>
</g>
<defs>
<clipPath id="clip0_296_364">
<rect width="16" height="16" fill="white"/>
</clipPath>
</defs>
</svg>
