<svg width="336" height="336" viewBox="0 0 336 336" fill="none" xmlns="http://www.w3.org/2000/svg">
<path d="M119 280.042L79.324 200.676L-0.0419922 161L79.324 121.324L119 41.958L158.676 121.324L238.042 161L158.676 200.676L119 280.042ZM31.262 161L89.754 190.246L119 248.738L148.246 190.246L206.738 161L148.246 131.754L119 73.262L89.754 131.754L31.262 161ZM259 335.846L233.436 284.732L182.322 259.168L233.436 233.618L259 182.49L284.564 233.618L335.678 259.168L284.564 284.732L259 335.846ZM213.626 259.168L243.88 274.302L259 304.556L274.12 274.302L304.374 259.168L274.12 244.048L259 213.794L243.88 244.048L213.626 259.168ZM273.182 126.21L252.224 84.294L210.322 63.35L252.224 42.392L273.182 0.503967L294.14 42.42L336.042 63.378L294.14 84.322L273.182 126.238V126.21ZM241.626 63.35L262.668 73.864L273.182 94.892L283.696 73.864L304.738 63.35L283.696 52.836L273.182 31.808L262.668 52.836L241.626 63.35Z" fill="black"/>
</svg>
